<?xml version="1.0" encoding="UTF-8"?>
<!DOCTYPE svg PUBLIC "-//W3C//DTD SVG 1.1//EN" "http://www.w3.org/Graphics/SVG/1.1/DTD/svg11.dtd">
<!-- Creator: CorelDRAW X8 -->
<svg xmlns="http://www.w3.org/2000/svg" xml:space="preserve" width="5602px" height="1755px" version="1.1" style="shape-rendering:geometricPrecision; text-rendering:geometricPrecision; image-rendering:optimizeQuality; fill-rule:evenodd; clip-rule:evenodd"
viewBox="0 0 5602 1755"
 xmlns:xlink="http://www.w3.org/1999/xlink">
 <defs>
  <style type="text/css">
   <![CDATA[
    .fil1 {fill:#006CB5;fill-rule:nonzero}
    .fil0 {fill:#006CB5;fill-rule:nonzero}
   ]]>
  </style>
 </defs>
 <g id="Слой_x0020_1">
  <metadata id="CorelCorpID_0Corel-Layer"/>
  <path class="fil0" d="M1727 628l12 0c20,0 35,-3 44,-9 9,-5 13,-13 13,-24 0,-11 -3,-18 -11,-23 -7,-5 -19,-8 -36,-8 -8,0 -15,1 -22,2l0 62zm0 33l0 74c8,1 16,2 24,2 18,0 32,-3 40,-10 8,-6 12,-17 12,-30 0,-12 -4,-21 -14,-27 -9,-6 -25,-9 -48,-9l-14 0zm120 40c0,24 -8,42 -23,54 -16,12 -40,18 -74,18 -24,0 -46,-2 -68,-5l0 -234c21,-4 42,-5 65,-5 61,0 91,20 91,59 0,14 -4,25 -13,35 -9,9 -21,16 -36,19l0 0c18,3 32,9 43,20 10,11 15,24 15,39zm82 -24l0 92 -45 0 0 -235c22,-4 46,-5 71,-5 32,0 56,6 72,17 16,12 23,29 23,50 0,16 -4,30 -12,41 -8,12 -20,20 -34,25l0 0c10,6 19,19 27,39l26 68 -47 0 -25 -67c-3,-10 -8,-17 -13,-21 -5,-3 -13,-4 -26,-4l-17 0zm0 -35l19 0c38,0 58,-14 58,-41 0,-25 -18,-37 -54,-37 -9,0 -17,1 -23,2l0 76zm212 -73l0 58 95 0 0 35 -95 0 0 71 102 0 0 36 -148 0 0 -237 148 0 0 37 -102 0zm286 10c-20,-10 -41,-15 -64,-15 -12,0 -21,3 -28,8 -6,5 -10,12 -10,21 0,15 12,26 34,33 30,8 52,18 64,30 13,13 19,28 19,48 0,22 -8,39 -22,51 -15,12 -36,18 -64,18 -29,0 -54,-8 -77,-22l12 -36c20,14 42,21 66,21 12,0 22,-3 29,-8 6,-6 10,-14 10,-24 0,-9 -3,-16 -8,-22 -6,-5 -15,-10 -29,-14 -28,-8 -48,-18 -60,-30 -13,-13 -19,-27 -19,-45 0,-19 7,-35 22,-47 14,-11 34,-17 60,-17 27,0 52,5 74,15l-9 35zm225 -47l0 38 -68 0 0 199 -46 0 0 -199 -68 0 0 -38 182 0zm282 47c-20,-10 -41,-15 -64,-15 -12,0 -21,3 -28,8 -6,5 -10,12 -10,21 0,15 12,26 34,33 30,8 52,18 64,30 13,13 19,28 19,48 0,22 -8,39 -22,51 -15,12 -36,18 -64,18 -29,0 -54,-8 -77,-22l12 -36c20,14 42,21 66,21 12,0 22,-3 29,-8 6,-6 10,-14 10,-24 0,-9 -3,-16 -8,-22 -6,-5 -15,-10 -29,-14 -28,-8 -48,-18 -60,-30 -13,-13 -19,-27 -19,-45 0,-19 7,-35 22,-47 14,-11 34,-17 60,-17 27,0 52,5 74,15l-9 35zm225 -47l0 38 -68 0 0 199 -46 0 0 -199 -68 0 0 -38 182 0zm-8 237l82 -237 49 0 82 237 -49 0 -16 -57 -84 0 -17 57 -47 0zm74 -92l63 0 -31 -105 -1 0 -31 105zm312 -145l0 38 -68 0 0 199 -46 0 0 -199 -68 0 0 -38 182 0zm89 37l0 58 95 0 0 35 -95 0 0 71 102 0 0 36 -147 0 0 -237 147 0 0 37 -102 0zm-1770 416l0 38 -68 0 0 200 -46 0 0 -200 -68 0 0 -38 182 0zm89 37l0 58 95 0 0 35 -95 0 0 71 102 0 0 37 -148 0 0 -238 148 0 0 37 -102 0zm259 -3c-25,0 -44,8 -59,23 -14,15 -22,36 -22,62 0,26 8,47 23,62 15,15 34,23 58,23 19,0 39,-6 57,-18l14 34c-22,14 -47,21 -76,21 -37,0 -66,-11 -89,-33 -22,-22 -33,-52 -33,-89 0,-37 11,-67 33,-89 21,-22 51,-33 89,-33 29,0 54,7 76,21l-14 34c-18,-12 -38,-18 -57,-18zm258 96l-97 0 0 108 -45 0 0 -238 45 0 0 95 97 0 0 -95 45 0 0 238 -45 0 0 -108zm97 108l0 -238 44 0 98 162 1 0 0 -162 44 0 0 238 -44 0 -98 -162 -1 0 0 162 -44 0zm245 0l0 -238 50 0 0 238 -50 0zm220 -204c-25,0 -44,8 -59,23 -14,15 -21,36 -21,62 0,26 7,47 22,62 15,15 34,23 58,23 20,0 39,-6 58,-18l13 34c-21,14 -47,21 -75,21 -37,0 -67,-11 -89,-33 -23,-22 -34,-52 -34,-89 0,-37 11,-67 33,-89 22,-22 52,-33 90,-33 28,0 54,7 75,21l-13 34c-19,-12 -38,-18 -58,-18zm95 204l82 -238 49 0 83 238 -49 0 -17 -58 -84 0 -17 58 -47 0zm75 -92l63 0 -32 -106 0 0 -31 106zm221 -146l0 200 105 0 0 38 -152 0 0 -238 47 0zm289 0l0 144c0,40 16,60 47,60 31,0 47,-20 47,-60l0 -144 45 0 0 141c0,33 -8,58 -24,75 -16,17 -39,25 -69,25 -29,0 -52,-8 -68,-25 -16,-17 -24,-42 -24,-75l0 -141 46 0zm187 238l0 -238 44 0 98 162 1 0 0 -162 44 0 0 238 -44 0 -98 -162 -1 0 0 162 -44 0zm245 0l0 -238 50 0 0 238 -50 0zm140 -238l58 193 1 0 59 -193 47 0 -83 238 -48 0 -83 -238 49 0zm246 37l0 58 95 0 0 35 -95 0 0 71 101 0 0 37 -147 0 0 -238 147 0 0 37 -101 0zm194 108l0 93 -45 0 0 -236c23,-3 46,-5 72,-5 32,0 56,6 71,18 16,12 24,28 24,50 0,15 -4,29 -12,41 -9,11 -20,20 -34,24l0 1c10,6 19,19 27,38l26 69 -47 0 -25 -68c-4,-10 -8,-17 -13,-20 -5,-3 -14,-5 -26,-5l-18 0zm0 -34l19 0c39,0 58,-14 58,-42 0,-24 -18,-36 -53,-36 -9,0 -17,0 -24,2l0 76zm303 -63c-20,-10 -41,-15 -64,-15 -12,0 -21,2 -27,8 -7,5 -10,12 -10,20 0,16 11,27 33,33 31,8 52,19 64,31 13,12 19,28 19,47 0,22 -7,39 -22,51 -15,12 -36,18 -64,18 -28,0 -54,-7 -76,-21l11 -37c21,14 43,22 66,22 13,0 22,-3 29,-9 7,-5 10,-13 10,-23 0,-10 -3,-17 -8,-22 -5,-6 -15,-11 -29,-15 -27,-8 -48,-18 -60,-30 -12,-12 -19,-27 -19,-45 0,-19 7,-35 22,-46 14,-12 35,-18 61,-18 26,0 51,5 73,15l-9 36zm65 190l0 -238 50 0 0 238 -50 0zm281 -238l0 38 -68 0 0 200 -46 0 0 -200 -68 0 0 -38 182 0zm78 0l54 107 0 0 54 -107 51 0 -82 143 0 95 -47 0 0 -95 -82 -143 52 0z"/>
  <path class="fil1" d="M1366 843c-57,-31 -92,-79 -97,-152 2,-101 49,-140 93,-162 0,-42 0,-350 0,-400l0 -4c0,-2 0,-4 0,-4l0 1c-4,-75 -63,-125 -207,-122 -172,12 -288,40 -463,131 241,-83 452,-95 529,-47 24,18 37,45 40,80l-157 0c-17,0 -31,7 -31,16l0 46 -97 0 0 -46c0,-9 -14,-16 -30,-16l-161 0c-17,0 -31,7 -31,16l0 46 -97 0 0 -46c0,-9 -14,-16 -31,-16l-160 0c-16,0 -30,7 -30,16l0 108 67 95 -4 359c-97,20 -193,21 -279,-8 -224,-100 48,-368 184,-475 -373,204 -621,611 -100,575 51,-5 99,-13 143,-22 1,0 2,0 3,0 46,-11 92,-23 137,-38 16,-13 28,-33 39,-49 -17,-14 -35,-46 2,-99 32,-46 36,-63 52,-123 11,24 18,85 19,111 5,71 -27,115 -59,115 -7,12 -14,23 -23,35 27,-9 53,-18 78,-29l14 -33c-4,-3 -6,-8 -6,-14 2,-9 9,-16 17,-15 8,0 13,7 12,16 -1,8 -8,15 -16,15l-10 27c15,-6 29,-13 43,-19 9,-13 18,-27 25,-42 -16,-11 -31,-34 -1,-82 28,-46 30,-65 41,-122 12,21 22,79 25,103 1,62 -22,94 -52,102 -5,11 -11,21 -18,31 27,-13 54,-27 79,-42l12 -32c-3,-2 -6,-7 -5,-12 1,-8 8,-14 15,-14 7,0 11,6 10,14 -1,7 -6,13 -12,14l-9 24c14,-9 29,-18 42,-26 11,-16 21,-36 30,-55 -15,-11 -28,-40 -1,-90 25,-46 26,-59 29,-115 13,20 26,75 30,98 8,62 -14,99 -45,109 -5,12 -10,24 -17,34 27,-18 52,-38 76,-59l9 -36c-4,-1 -6,-6 -6,-11 1,-6 7,-11 12,-11 6,0 10,5 9,12 -1,5 -4,8 -8,10l-4 26c10,-10 20,-19 30,-29 6,-14 10,-30 14,-45 -17,-4 -25,-22 -14,-69 13,-40 11,-50 8,-95 15,13 31,37 40,70 14,45 1,83 -24,93 -1,9 -4,18 -7,29 20,-21 39,-44 57,-67l5 -36c-4,-2 -7,-6 -6,-12 1,-6 6,-11 12,-11 6,0 10,6 9,12 -1,4 -4,9 -8,10l-3 25c10,-15 21,-29 30,-45 -9,-12 -18,-33 0,-63 23,-35 24,-46 34,-90 10,21 18,61 20,80 0,42 -17,78 -48,78 -8,12 -15,25 -24,37l13 -2c1,-5 6,-9 11,-9 6,0 10,6 9,12 -1,6 -6,11 -12,11 -3,0 -7,-2 -8,-6l-19 3c-16,22 -33,44 -51,65 9,1 18,1 26,1 3,-17 9,-32 50,-40 32,-1 44,-9 79,-28 -10,28 -32,63 -50,76 -35,26 -67,20 -79,0 -11,2 -24,3 -36,2 -12,14 -25,27 -38,40l19 2c3,-4 7,-7 11,-7 6,0 10,5 9,12 -1,6 -6,11 -12,11 -4,0 -7,-3 -8,-7l-27 -3c-24,23 -50,45 -77,66 10,3 20,5 32,7 8,-20 20,-37 73,-23 40,18 56,15 105,13 -18,24 -59,49 -84,53 -53,10 -81,-7 -93,-31 -17,-2 -32,-4 -47,-9 -16,12 -32,24 -49,34l19 4c2,-5 7,-8 12,-8 7,0 12,7 11,14 -1,8 -7,14 -15,14 -6,0 -10,-5 -10,-11l-27 -6c-27,17 -53,33 -81,47 8,6 16,12 24,16 11,-20 26,-36 79,-20 40,19 58,16 109,14 -23,27 -58,46 -94,54 -54,11 -88,-6 -97,-35 -13,-5 -25,-12 -37,-21 -14,8 -29,15 -44,22l20 7c3,-4 8,-6 13,-6 8,0 13,7 12,16 -1,9 -9,16 -17,16 -8,-1 -13,-8 -12,-17 0,0 0,0 0,0l-28 -10c-30,13 -60,25 -91,37 10,7 20,14 30,20 17,-19 39,-38 92,3 37,37 55,41 109,60 -25,13 -85,19 -109,19 -69,4 -99,-38 -97,-70 -15,-6 -31,-15 -45,-25 -38,13 -77,25 -116,35l0 1c-10,2 -21,5 -32,7 -6,2 -13,3 -19,5 -1,0 -1,0 -1,0 -127,27 -273,41 -443,38 -2,130 -11,251 36,375 49,132 165,216 274,277 133,63 264,121 374,228 119,-104 232,-160 373,-228 111,-62 225,-143 274,-277 50,-131 40,-269 33,-407zm-1030 321c16,6 29,15 37,27 9,11 13,25 13,41 0,14 -2,26 -6,37 -4,10 -10,19 -18,25 -8,7 -17,12 -28,15 -11,3 -25,4 -41,4l-109 0 0 -13c5,-2 8,-3 11,-5 2,-2 4,-4 5,-7 2,-3 2,-6 3,-11 0,-4 0,-9 0,-16l0 -180c0,-7 0,-12 0,-17 0,-4 -1,-8 -2,-11 -2,-3 -4,-5 -6,-7 -3,-1 -6,-3 -11,-4l0 -14 116 0c13,0 23,1 32,2 11,2 20,6 28,11 8,5 13,11 17,20 4,8 6,18 6,30 0,32 -15,55 -47,71l0 2zm-55 -11c12,0 21,-2 28,-6 6,-4 11,-10 15,-17 3,-8 5,-18 5,-31 0,-12 -2,-21 -6,-28 -3,-6 -9,-11 -16,-14 -6,-3 -15,-5 -25,-5 -9,0 -17,1 -24,1l0 100 23 0zm-23 135c7,1 15,1 24,1 11,0 20,-2 27,-5 7,-3 13,-9 17,-17 4,-8 6,-20 6,-34 0,-10 -1,-18 -3,-26 -2,-7 -6,-13 -10,-17 -4,-4 -9,-7 -15,-10 -6,-2 -13,-3 -22,-3l-24 0 0 111zm224 -152l3 0c8,-12 17,-20 26,-25 9,-6 19,-8 29,-8 8,0 15,1 23,2l0 58 -32 0c-2,-8 -4,-14 -8,-19 -3,-4 -7,-6 -13,-6 -2,0 -5,1 -8,3 -3,2 -6,4 -9,8 -2,3 -4,7 -5,10 -1,4 -2,7 -3,11 0,4 0,9 0,16l0 67c0,13 0,22 1,28 1,5 3,9 5,12 3,3 7,5 13,7l0 13 -87 0 0 -13c6,-2 10,-5 12,-8 2,-3 3,-7 4,-12 1,-5 1,-14 1,-27l0 -86c0,-10 0,-18 0,-23 -1,-5 -1,-9 -2,-12 -1,-3 -3,-5 -5,-7 -3,-2 -7,-3 -12,-5l0 -14 48 -2 22 0 -3 32zm125 107c3,16 7,29 14,37 7,8 17,12 30,12 7,0 14,-1 19,-4 6,-3 10,-7 13,-13 4,-7 5,-14 5,-24 0,-8 -1,-16 -4,-22 -2,-7 -7,-13 -13,-18 -6,-6 -14,-12 -25,-18 -9,-6 -17,-12 -24,-17 -8,-6 -14,-13 -19,-20 -5,-7 -10,-14 -12,-23 -3,-8 -5,-18 -5,-28 0,-17 4,-32 11,-44 7,-12 17,-21 31,-27 14,-6 29,-9 47,-9 10,0 20,0 30,2 9,1 20,3 32,7l0 60 -24 0c-2,-11 -5,-19 -8,-26 -4,-6 -8,-11 -13,-14 -5,-3 -12,-5 -20,-5 -6,0 -12,1 -18,4 -5,3 -9,7 -12,13 -3,5 -5,12 -5,20 0,8 2,15 4,21 3,6 7,11 14,17 6,6 15,12 27,19 14,9 25,18 34,27 8,8 14,18 18,28 4,10 6,21 6,35 0,17 -4,32 -10,44 -7,13 -17,23 -29,30 -13,6 -28,10 -45,10 -12,0 -24,-1 -37,-3 -13,-1 -25,-4 -36,-7l0 -64 24 0zm208 70l0 -13c4,-1 8,-3 11,-4 3,-2 5,-4 7,-7 1,-3 2,-7 2,-11 1,-5 1,-10 1,-17l0 -209 -14 0c-7,0 -13,1 -17,3 -3,2 -7,5 -9,10 -3,4 -5,9 -7,16 -2,7 -4,14 -5,20l-24 0 0 -73 206 0 0 73 -24 0c-2,-9 -4,-16 -5,-21 -1,-4 -3,-8 -4,-11 -2,-3 -4,-6 -5,-8 -2,-2 -4,-4 -6,-5 -2,-1 -4,-2 -7,-3 -3,0 -7,-1 -12,-1l-13 0 0 209c0,7 0,13 1,17 0,3 1,7 2,9 1,2 2,4 3,6 2,1 3,2 6,4 2,1 5,2 10,3l0 13 -97 0zm334 -233c0,-10 0,-17 -1,-21 0,-4 -2,-8 -4,-10 -2,-3 -7,-5 -13,-7l0 -14 77 0 0 14c-4,1 -7,3 -10,4 -2,2 -4,4 -6,7 -1,3 -2,6 -2,11 0,4 -1,10 -1,16l0 131c0,17 -1,32 -3,43 -2,12 -6,22 -11,30 -5,8 -11,14 -18,19 -8,5 -16,8 -25,11 -9,2 -19,3 -31,3 -16,0 -30,-2 -42,-7 -11,-4 -21,-10 -28,-18 -7,-8 -12,-19 -16,-30 -3,-12 -5,-27 -5,-46l0 -135c0,-7 0,-12 0,-17 -1,-4 -1,-8 -3,-11 -1,-3 -3,-5 -5,-7 -3,-1 -6,-3 -11,-4l0 -14 92 0 0 14c-4,1 -8,3 -10,5 -3,1 -4,4 -5,6 -2,3 -2,6 -3,10 0,4 -1,10 -1,18l0 138c0,11 1,21 2,30 1,9 4,17 7,23 3,6 7,11 13,15 5,3 12,5 21,5 12,0 21,-3 26,-8 6,-6 10,-14 13,-24 2,-11 3,-26 3,-46l0 -134z"/>
 </g>
</svg>
